<?xml version="1.0" standalone="no"?>
<!DOCTYPE svg PUBLIC "-//W3C//DTD SVG 20010904//EN"
 "http://www.w3.org/TR/2001/REC-SVG-20010904/DTD/svg10.dtd">
<svg version="1.0" xmlns="http://www.w3.org/2000/svg"
 width="512.000000pt" height="512.000000pt" viewBox="0 0 512.000000 512.000000"
 preserveAspectRatio="xMidYMid meet">
<metadata>
Created by potrace 1.14, written by Peter Selinger 2001-2017
</metadata>
<g transform="translate(0.000000,512.000000) scale(0.100000,-0.100000)"
fill="#000000" stroke="none">
<path d="M2479 4916 c-48 -33 -63 -74 -64 -172 0 -45 -2 -85 -5 -87 -3 -3 -32
-8 -64 -11 -129 -14 -208 -29 -331 -62 -99 -27 -108 -30 -210 -69 -529 -204
-965 -628 -1178 -1145 -71 -170 -126 -367 -142 -505 -3 -27 -7 -59 -10 -70 -2
-11 -4 -36 -4 -55 l-1 -36 -82 0 c-100 0 -130 -7 -161 -37 -51 -47 -64 -116
-32 -176 27 -53 75 -73 175 -75 49 -1 91 -3 93 -6 3 -3 8 -32 11 -65 13 -113
33 -222 56 -310 29 -107 38 -133 66 -209 192 -508 576 -926 1068 -1160 100
-48 129 -59 256 -102 115 -39 307 -79 430 -90 30 -3 57 -7 60 -10 2 -3 6 -46
7 -95 1 -67 6 -97 20 -121 35 -60 110 -87 173 -61 71 29 93 72 94 185 1 48 4
89 7 92 2 3 35 8 72 11 68 6 86 9 140 21 16 3 38 7 50 9 73 9 297 77 392 118
538 232 948 656 1154 1190 42 110 48 129 82 272 23 98 33 153 45 260 3 33 8
62 11 65 2 3 44 5 93 6 73 1 95 6 125 24 65 40 87 121 51 186 -33 59 -73 77
-176 78 -49 1 -91 4 -93 6 -3 3 -7 30 -11 60 -12 113 -18 148 -47 270 -93 392
-278 722 -563 1005 -345 343 -805 561 -1265 600 -30 3 -57 7 -60 10 -2 3 -6
45 -7 94 -2 57 -8 100 -18 119 -36 71 -139 94 -207 48z"/>
</g>
</svg>
