<svg viewBox="0 0 1025 626" fill="none" xmlns="http://www.w3.org/2000/svg">
<g clip-path="url(#clip0_182_114)">
<path d="M396.723 611.193C396.723 622.595 393.566 625.753 382.164 625.753H356.999C345.597 625.753 342.439 622.595 342.439 625.599V28.9957C342.47 3.18701 345.597 0.0605469 356.999 0.0605469H462.778C474.18 0.0605469 477.337 3.21767 477.337 14.6201V40.5514C477.337 51.9538 474.18 55.1109 462.778 55.1109H403.804C398.287 55.1109 396.723 56.6741 396.723 62.1914V241.105C396.723 246.224 398.287 248.186 403.804 248.186H446.257C457.659 248.186 460.816 251.343 460.816 262.745V288.707C460.816 300.11 457.659 303.267 447.054 303.267H403.804C398.287 303.267 396.723 304.83 396.723 310.347V611.224V611.193Z" fill="white"/>
<path d="M601.6 0.0599485H626.764C638.167 0.0599485 641.324 3.21707 641.324 14.6195V539.222C641.324 602.518 622.443 625.721 565.431 625.721C508.419 625.721 489.537 602.518 489.537 539.222V14.5888C489.537 3.18642 492.694 0.0292969 504.097 0.0292969H529.262C540.664 0.0292969 543.821 3.18642 543.821 14.5888V548.663C543.821 564.387 550.503 570.671 565.461 570.671C580.419 570.671 587.101 564.387 587.101 548.663V14.5888C587.101 3.18642 590.258 0.0292969 601.661 0.0292969L601.6 0.0599485Z" fill="white"/>
<path d="M779.318 280.925C781.678 280.925 782.475 279.76 782.475 277.002V14.5928C782.475 6.56208 789.004 0.0332752 797.035 0.0332752H821.004C829.035 0.0332752 835.564 6.53143 835.564 14.5928V611.196C835.564 619.227 829.035 625.756 821.004 625.756H797.035C789.004 625.756 782.475 619.258 782.475 611.196V405.953C782.475 387.47 779.717 380.788 773.035 368.221L736.467 300.205C734.505 296.649 733.709 295.883 731.348 295.883C728.988 295.883 728.191 297.048 728.191 299.806V611.196C728.191 619.227 721.662 625.756 713.632 625.756H689.662C681.631 625.756 675.103 619.227 675.103 611.196V14.5928C675.103 6.56208 681.631 0.0332752 689.662 0.0332752H704.988C719.547 0.0332752 733.371 -1.92843 733.31 18.5162L734.659 193.261C734.689 198.135 735.885 202.917 738.122 207.238L774.169 276.572C776.13 280.097 776.927 280.894 779.287 280.894L779.318 280.925Z" fill="white"/>
<path d="M1024.65 94.4057V531.621C1024.65 598.472 1009.33 625.997 933.832 625.997H885.862C874.46 625.997 871.303 622.84 871.303 611.438V14.5888C871.303 3.18642 874.46 0.0292969 885.862 0.0292969H933.832C1009.33 0.0292969 1024.65 27.5545 1024.65 94.4057ZM925.556 62.1602V563.866C925.556 568.985 927.119 570.947 932.637 570.947H936.959C958.966 570.947 968.806 560.74 968.806 535.176V90.8808C968.806 65.3173 958.966 55.1103 936.959 55.1103H932.637C927.119 55.1103 925.556 56.6735 925.556 62.1908V62.1602Z" fill="white"/>
<path d="M36.9659 68.0765C36.9659 62.5592 35.4026 60.996 29.8854 60.996H14.5595C3.15712 60.996 0 57.8389 0 46.4365V14.5894C0 3.18702 3.15712 0.0605469 14.5595 0.0605469H76.6598C88.0622 0.0605469 91.2193 3.21767 91.2193 14.6201V288.676C91.2193 300.079 88.0622 303.236 76.6598 303.236H51.4948C40.0924 303.236 36.9352 300.079 36.9352 288.676V68.0765H36.9659Z" fill="white"/>
<path d="M217.842 181.702C217.045 181.702 216.279 182.101 215.084 182.867C207.605 187.986 199.359 191.112 182.838 191.112C145.474 191.112 123.067 169.871 123.067 114.054V80.6437C123.067 23.6317 143.911 0.0605469 198.961 0.0605469C254.011 0.0605469 274.854 24.0608 274.854 90.4829V212.385C274.854 278.837 255.973 302.807 199.758 302.807C143.543 302.807 124.661 279.205 124.661 222.193V220.63C124.661 209.227 127.818 206.07 139.221 206.07H163.589C174.991 206.07 178.148 209.227 178.148 220.63V229.672C178.148 242.638 184.83 247.757 198.593 247.757C212.356 247.757 219.038 241.473 219.038 225.749V183.296C219.038 182.131 218.639 181.733 217.842 181.733V181.702ZM178.915 114.085C178.915 129.809 185.198 136.093 198.961 136.093C212.723 136.093 219.007 129.809 219.007 114.085V77.1188C219.007 61.3945 212.723 55.1109 198.961 55.1109C185.198 55.1109 178.915 61.3945 178.915 77.1188V114.085Z" fill="white"/>
<path d="M105.901 504.616C105.104 504.616 104.338 505.014 103.142 505.78C95.6632 510.899 87.4179 514.026 70.8967 514.026C33.5323 514.026 11.126 492.784 11.126 436.967V403.557C11.126 346.545 31.9691 322.943 87.0195 322.943C142.07 322.943 162.913 346.944 162.913 413.366V535.267C162.913 601.72 144.032 625.69 87.8164 625.69C31.6013 625.69 12.7199 602.088 12.7199 545.076V543.513C12.7199 532.11 15.877 528.953 27.2794 528.953H51.6475C63.0499 528.953 66.207 532.11 66.207 543.513V552.555C66.207 565.52 72.889 570.639 86.6516 570.639C100.414 570.639 107.096 564.356 107.096 548.631V506.179C107.096 505.014 106.698 504.616 105.932 504.616H105.901ZM66.9733 436.998C66.9733 452.722 73.2569 459.006 87.0195 459.006C100.782 459.006 107.066 452.722 107.066 436.998V400.032C107.066 384.308 100.782 378.024 87.0195 378.024C73.2569 378.024 66.9733 384.308 66.9733 400.032V436.998Z" fill="white"/>
<path d="M220.57 390.99C220.57 385.473 219.007 383.909 213.49 383.909H198.164C186.762 383.909 183.604 380.752 183.604 369.35V337.503C183.604 326.1 186.762 322.943 198.164 322.943H260.295C271.697 322.943 274.854 326.1 274.854 337.503V611.161C274.854 622.563 271.697 625.72 260.295 625.72H235.13C223.727 625.72 220.57 622.563 220.57 611.161V390.99Z" fill="white"/>
</g>
<defs>
<clipPath id="clip0_182_114">
<rect width="1024.65" height="625.999" fill="white"/>
</clipPath>
</defs>
</svg>
